<mxfile host="65bd71144e">
    <diagram name="第 1 页" id="oVFJMWNDhLeTLdciBzTI">
        <mxGraphModel dx="1097" dy="771" grid="1" gridSize="10" guides="1" tooltips="1" connect="1" arrows="1" fold="1" page="1" pageScale="1" pageWidth="827" pageHeight="1169" math="0" shadow="0">
            <root>
                <mxCell id="XVc0D8FL1i5FkF4xpdXy-0"/>
                <mxCell id="XVc0D8FL1i5FkF4xpdXy-1" parent="XVc0D8FL1i5FkF4xpdXy-0"/>
                <mxCell id="XVc0D8FL1i5FkF4xpdXy-2" style="edgeStyle=none;html=1;exitX=0.5;exitY=1;exitDx=0;exitDy=0;entryX=0.5;entryY=0;entryDx=0;entryDy=0;" parent="XVc0D8FL1i5FkF4xpdXy-1" source="XVc0D8FL1i5FkF4xpdXy-3" target="XVc0D8FL1i5FkF4xpdXy-5" edge="1">
                    <mxGeometry relative="1" as="geometry"/>
                </mxCell>
                <mxCell id="XVc0D8FL1i5FkF4xpdXy-3" value="开始" style="rounded=1;whiteSpace=wrap;html=1;" parent="XVc0D8FL1i5FkF4xpdXy-1" vertex="1">
                    <mxGeometry x="70" y="80" width="120" height="60" as="geometry"/>
                </mxCell>
                <mxCell id="XVc0D8FL1i5FkF4xpdXy-4" value="" style="edgeStyle=none;html=1;" parent="XVc0D8FL1i5FkF4xpdXy-1" source="XVc0D8FL1i5FkF4xpdXy-5" target="XVc0D8FL1i5FkF4xpdXy-7" edge="1">
                    <mxGeometry relative="1" as="geometry"/>
                </mxCell>
                <mxCell id="XVc0D8FL1i5FkF4xpdXy-5" value="输入ID" style="rounded=0;whiteSpace=wrap;html=1;" parent="XVc0D8FL1i5FkF4xpdXy-1" vertex="1">
                    <mxGeometry x="70" y="220" width="120" height="60" as="geometry"/>
                </mxCell>
                <mxCell id="XVc0D8FL1i5FkF4xpdXy-6" value="" style="edgeStyle=none;html=1;" parent="XVc0D8FL1i5FkF4xpdXy-1" source="XVc0D8FL1i5FkF4xpdXy-7" target="XVc0D8FL1i5FkF4xpdXy-9" edge="1">
                    <mxGeometry relative="1" as="geometry"/>
                </mxCell>
                <mxCell id="XVc0D8FL1i5FkF4xpdXy-7" value="输入密码" style="whiteSpace=wrap;html=1;rounded=0;" parent="XVc0D8FL1i5FkF4xpdXy-1" vertex="1">
                    <mxGeometry x="70" y="360" width="120" height="60" as="geometry"/>
                </mxCell>
                <mxCell id="HHEykTgH1VlGGurRxkqD-0" style="edgeStyle=none;html=1;exitX=1;exitY=0.5;exitDx=0;exitDy=0;entryX=0;entryY=0.5;entryDx=0;entryDy=0;" parent="XVc0D8FL1i5FkF4xpdXy-1" source="XVc0D8FL1i5FkF4xpdXy-9" target="XVc0D8FL1i5FkF4xpdXy-15" edge="1">
                    <mxGeometry relative="1" as="geometry">
                        <mxPoint x="260" y="190" as="targetPoint"/>
                        <Array as="points">
                            <mxPoint x="220" y="530"/>
                            <mxPoint x="220" y="330"/>
                            <mxPoint x="220" y="230"/>
                        </Array>
                    </mxGeometry>
                </mxCell>
                <mxCell id="XVc0D8FL1i5FkF4xpdXy-9" value="客户端检查信息格式" style="whiteSpace=wrap;html=1;rounded=0;" parent="XVc0D8FL1i5FkF4xpdXy-1" vertex="1">
                    <mxGeometry x="70" y="500" width="120" height="60" as="geometry"/>
                </mxCell>
                <mxCell id="XVc0D8FL1i5FkF4xpdXy-14" value="" style="edgeStyle=none;html=1;" parent="XVc0D8FL1i5FkF4xpdXy-1" source="XVc0D8FL1i5FkF4xpdXy-15" target="XVc0D8FL1i5FkF4xpdXy-17" edge="1">
                    <mxGeometry relative="1" as="geometry"/>
                </mxCell>
                <mxCell id="XVc0D8FL1i5FkF4xpdXy-15" value="向服务端发送&lt;br&gt;登录请求" style="whiteSpace=wrap;html=1;rounded=0;" parent="XVc0D8FL1i5FkF4xpdXy-1" vertex="1">
                    <mxGeometry x="270" y="200" width="120" height="60" as="geometry"/>
                </mxCell>
                <mxCell id="XVc0D8FL1i5FkF4xpdXy-16" value="" style="edgeStyle=none;html=1;" parent="XVc0D8FL1i5FkF4xpdXy-1" source="XVc0D8FL1i5FkF4xpdXy-17" target="XVc0D8FL1i5FkF4xpdXy-22" edge="1">
                    <mxGeometry relative="1" as="geometry"/>
                </mxCell>
                <mxCell id="XVc0D8FL1i5FkF4xpdXy-17" value="服务端解析数据" style="whiteSpace=wrap;html=1;rounded=0;" parent="XVc0D8FL1i5FkF4xpdXy-1" vertex="1">
                    <mxGeometry x="270" y="340" width="120" height="60" as="geometry"/>
                </mxCell>
                <mxCell id="XVc0D8FL1i5FkF4xpdXy-18" value="" style="edgeStyle=none;html=1;" parent="XVc0D8FL1i5FkF4xpdXy-1" source="XVc0D8FL1i5FkF4xpdXy-22" target="XVc0D8FL1i5FkF4xpdXy-24" edge="1">
                    <mxGeometry relative="1" as="geometry">
                        <Array as="points">
                            <mxPoint x="420" y="510"/>
                            <mxPoint x="420" y="150"/>
                        </Array>
                    </mxGeometry>
                </mxCell>
                <mxCell id="XVc0D8FL1i5FkF4xpdXy-19" value="是" style="edgeLabel;html=1;align=center;verticalAlign=middle;resizable=0;points=[];" parent="XVc0D8FL1i5FkF4xpdXy-18" vertex="1" connectable="0">
                    <mxGeometry x="-0.1192" y="1" relative="1" as="geometry">
                        <mxPoint as="offset"/>
                    </mxGeometry>
                </mxCell>
                <mxCell id="XVc0D8FL1i5FkF4xpdXy-20" style="edgeStyle=none;html=1;exitX=0.5;exitY=1;exitDx=0;exitDy=0;entryX=0;entryY=0.5;entryDx=0;entryDy=0;" parent="XVc0D8FL1i5FkF4xpdXy-1" source="XVc0D8FL1i5FkF4xpdXy-22" target="XVc0D8FL1i5FkF4xpdXy-29" edge="1">
                    <mxGeometry relative="1" as="geometry">
                        <Array as="points">
                            <mxPoint x="330" y="570"/>
                        </Array>
                    </mxGeometry>
                </mxCell>
                <mxCell id="XVc0D8FL1i5FkF4xpdXy-21" value="否" style="edgeLabel;html=1;align=center;verticalAlign=middle;resizable=0;points=[];" parent="XVc0D8FL1i5FkF4xpdXy-20" vertex="1" connectable="0">
                    <mxGeometry x="-0.2375" y="-4" relative="1" as="geometry">
                        <mxPoint as="offset"/>
                    </mxGeometry>
                </mxCell>
                <mxCell id="XVc0D8FL1i5FkF4xpdXy-22" value="用户已注册" style="rhombus;whiteSpace=wrap;html=1;rounded=0;" parent="XVc0D8FL1i5FkF4xpdXy-1" vertex="1">
                    <mxGeometry x="290" y="470" width="80" height="80" as="geometry"/>
                </mxCell>
                <mxCell id="XVc0D8FL1i5FkF4xpdXy-23" value="" style="edgeStyle=none;html=1;" parent="XVc0D8FL1i5FkF4xpdXy-1" source="XVc0D8FL1i5FkF4xpdXy-24" target="XVc0D8FL1i5FkF4xpdXy-26" edge="1">
                    <mxGeometry relative="1" as="geometry"/>
                </mxCell>
                <mxCell id="XVc0D8FL1i5FkF4xpdXy-24" value="服务端处理&lt;br&gt;并返回响应" style="whiteSpace=wrap;html=1;rounded=0;" parent="XVc0D8FL1i5FkF4xpdXy-1" vertex="1">
                    <mxGeometry x="470" y="120" width="120" height="60" as="geometry"/>
                </mxCell>
                <mxCell id="XVc0D8FL1i5FkF4xpdXy-25" value="" style="edgeStyle=none;html=1;" parent="XVc0D8FL1i5FkF4xpdXy-1" source="XVc0D8FL1i5FkF4xpdXy-26" target="XVc0D8FL1i5FkF4xpdXy-28" edge="1">
                    <mxGeometry relative="1" as="geometry"/>
                </mxCell>
                <mxCell id="XVc0D8FL1i5FkF4xpdXy-26" value="客户端解析响应" style="whiteSpace=wrap;html=1;rounded=0;" parent="XVc0D8FL1i5FkF4xpdXy-1" vertex="1">
                    <mxGeometry x="470" y="260" width="120" height="60" as="geometry"/>
                </mxCell>
                <mxCell id="XVc0D8FL1i5FkF4xpdXy-27" style="edgeStyle=none;html=1;exitX=0.5;exitY=1;exitDx=0;exitDy=0;entryX=0.5;entryY=0;entryDx=0;entryDy=0;" parent="XVc0D8FL1i5FkF4xpdXy-1" source="XVc0D8FL1i5FkF4xpdXy-28" target="XVc0D8FL1i5FkF4xpdXy-29" edge="1">
                    <mxGeometry relative="1" as="geometry"/>
                </mxCell>
                <mxCell id="XVc0D8FL1i5FkF4xpdXy-28" value="客户端展示结果" style="whiteSpace=wrap;html=1;rounded=0;" parent="XVc0D8FL1i5FkF4xpdXy-1" vertex="1">
                    <mxGeometry x="470" y="400" width="120" height="60" as="geometry"/>
                </mxCell>
                <mxCell id="XVc0D8FL1i5FkF4xpdXy-29" value="结束" style="rounded=1;whiteSpace=wrap;html=1;" parent="XVc0D8FL1i5FkF4xpdXy-1" vertex="1">
                    <mxGeometry x="470" y="540" width="120" height="60" as="geometry"/>
                </mxCell>
            </root>
        </mxGraphModel>
    </diagram>
</mxfile>